<?xml version="1.0" encoding="UTF-8" standalone="no"?>
<!-- Created with Inkscape (http://www.inkscape.org/) -->

<svg
   width="2048"
   height="2048"
   viewBox="0 0 2048 2048"
   version="1.1"
   id="svg5"
   xml:space="preserve"
   inkscape:version="1.2.2 (1:1.2.2+202212051551+b0a8486541)"
   sodipodi:docname="buttons-texture.svg"
   inkscape:export-filename="buttons-texture.png"
   inkscape:export-xdpi="48"
   inkscape:export-ydpi="48"
   xmlns:inkscape="http://www.inkscape.org/namespaces/inkscape"
   xmlns:sodipodi="http://sodipodi.sourceforge.net/DTD/sodipodi-0.dtd"
   xmlns="http://www.w3.org/2000/svg"
   xmlns:svg="http://www.w3.org/2000/svg"
   xmlns:rdf="http://www.w3.org/1999/02/22-rdf-syntax-ns#"
   xmlns:cc="http://creativecommons.org/ns#"
   xmlns:dc="http://purl.org/dc/elements/1.1/"><sodipodi:namedview
     id="namedview7"
     pagecolor="#000000"
     bordercolor="#666666"
     borderopacity="1.0"
     inkscape:showpageshadow="2"
     inkscape:pageopacity="0"
     inkscape:pagecheckerboard="0"
     inkscape:deskcolor="#d1d1d1"
     inkscape:document-units="px"
     showgrid="false"
     inkscape:zoom="0.5"
     inkscape:cx="865"
     inkscape:cy="826"
     inkscape:window-width="2504"
     inkscape:window-height="1409"
     inkscape:window-x="56"
     inkscape:window-y="0"
     inkscape:window-maximized="1"
     inkscape:current-layer="g1557" /><defs
     id="defs2" /><g
     inkscape:label="Layer 1"
     inkscape:groupmode="layer"
     id="layer1"><g
       id="g1533"
       transform="matrix(0.7175141,0,0,0.71751415,72.316382,72.316387)"><path
         fill="#000000"
         d="m 175.02,144.98 a 24.041631,24.041631 0 0 1 34,-34 L 232,134 V 48 a 24,24 0 0 1 48,0 v 86 l 23.02,-23.04 a 24.041631,24.041631 0 0 1 34,34 l -64,64 a 24,24 0 0 1 -34,0 z m 98,158 a 24,24 0 0 0 -34,0 l -64,64 a 24.041631,24.041631 0 0 0 34,34 L 232,378 v 86 a 24,24 0 0 0 48,0 v -86 l 23.02,23.04 a 24.041631,24.041631 0 0 0 34,-34 z M 464,232 h -86 l 23.04,-23.02 a 24.041631,24.041631 0 0 0 -34,-34 l -64,64 a 24,24 0 0 0 0,34 l 64,64 a 24.041631,24.041631 0 0 0 34,-34 L 378,280 h 86 a 24,24 0 0 0 0,-48 z m -255.02,7.02 -64,-64 a 24.041631,24.041631 0 0 0 -34,34 L 134,232 H 48 a 24,24 0 0 0 0,48 h 86 l -22.98,23.02 a 24.041631,24.041631 0 0 0 34,34 l 64,-64 a 24,24 0 0 0 -0.04,-34 z"
         id="path749"
         style="fill:#ffffff;fill-opacity:1;stroke-width:2" /><circle
         style="fill:none;stroke:#ffffff;stroke-width:48;stroke-dasharray:none;stroke-opacity:1"
         id="path1388"
         cx="256"
         cy="256"
         r="330" /></g><g
       id="g1537"
       transform="matrix(0.7175141,0,0,0.71751415,222.68928,72.316387)"><path
         fill="#000000"
         d="m 783.99996,80 v 352 a 24,24 0 0 1 -48,0 V 80 a 24,24 0 0 1 48,0 z M 632.98,175.02 a 24.041631,24.041631 0 0 0 -34,34 L 622,232 h -86 a 24,24 0 0 0 0,48 h 86 l -22.98,23.02 a 24.041631,24.041631 0 0 0 34,34 l 64,-64 a 24,24 0 0 0 0,-34 z M 983.99996,232 h -86 l 23.04,-23.02 a 24.041631,24.041631 0 0 0 -34,-34 l -64,64 a 24,24 0 0 0 0,34 l 64,64 a 24.041631,24.041631 0 0 0 34,-34 l -23.04,-22.98 h 86 a 24,24 0 0 0 0,-48 z"
         id="path758"
         style="fill:#ffffff;fill-opacity:1;stroke-width:2" /><circle
         style="fill:none;stroke:#ffffff;stroke-width:48;stroke-dasharray:none;stroke-opacity:1"
         id="path1388-3"
         cx="760"
         cy="256"
         r="330" /></g><g
       id="g1541"
       transform="matrix(0.7175141,0,0,0.71751415,359.66876,72.316387)"><path
         fill="#000000"
         d="m 1373.2067,42.439536 a 24,24 0 0 0 -25.28,2.62 l -137.5,106.940004 h -87.76 a 40,40 0 0 0 -40,40 v 128 a 40,40 0 0 0 40,40 h 87.76 l 137.5,106.94 a 24,24 0 0 0 38.74,-18.94 V 63.999536 a 24,24 0 0 0 -13.46,-21.56 z m -242.54,157.560004 h 64 v 112 h -64 z m 208,198.92 -96,-74.66 v -136.52 l 96,-74.66 z m 144,-142.92 a 88,88 0 0 1 -22,58.22 24.003633,24.003633 0 0 1 -36,-31.76 40,40 0 0 0 0,-52.88 24,24 0 0 1 36,-31.7 87.88,87.88 0 0 1 22,58.12 z"
         id="path830"
         style="fill:#ffffff;fill-opacity:1;stroke-width:2" /><circle
         style="fill:none;stroke:#ffffff;stroke-width:48;stroke-dasharray:none;stroke-opacity:1"
         id="path1388-6"
         cx="1282.6667"
         cy="256"
         r="330" /></g><g
       id="g1545"
       transform="matrix(0.7175141,0,0,0.71751415,494.73474,72.316387)"><path
         fill="#000000"
         d="m 1858.54,42.439536 a 24,24 0 0 0 -25.28,2.62 L 1695.76,151.99954 H 1608 a 40,40 0 0 0 -40,40 v 128 a 40,40 0 0 0 40,40 h 87.76 l 137.5,106.94 a 24,24 0 0 0 38.74,-18.94 V 63.999536 a 24,24 0 0 0 -13.46,-21.56 z M 1616,199.99954 h 64 v 112 h -64 z m 208,198.92 -96,-74.66 v -136.52 l 96,-74.66 z m 144,-142.92 a 88,88 0 0 1 -22,58.22 24.003633,24.003633 0 1 1 -36,-31.76 40,40 0 0 0 0,-52.86 24,24 0 0 1 36,-31.72 87.88,87.88 0 0 1 22,58.12 z m 80,0 a 167.74,167.74 0 0 1 -42.78,112 24.001085,24.001085 0 0 1 -35.78,-32 120,120 0 0 0 0,-160 24,24 0 1 1 35.76,-32 167.74,167.74 0 0 1 42.8,112 z"
         id="path821"
         style="fill:#ffffff;fill-opacity:1;stroke-width:2" /><circle
         style="fill:none;stroke:#ffffff;stroke-width:48;stroke-dasharray:none;stroke-opacity:1"
         id="path1388-7"
         cx="1808"
         cy="256"
         r="330" /></g><g
       id="g1561"
       transform="matrix(0.7175141,0,0,0.71751415,494.73474,216.94914)"><path
         fill="#000000"
         d="m 2038.3472,734.59639 -176.36,-112.34 a 39.82,39.82 0 0 0 -61.26,33.44 v 60 l -146.74,-93.44 a 39.82,39.82 0 0 0 -61.26,33.44 v 224.64 a 39.86,39.86 0 0 0 61.26,33.44 l 146.74,-93.46 v 60 a 39.86,39.86 0 0 0 61.26,33.44 l 176.36,-112.34 a 39.58,39.58 0 0 0 0,-66.84 z m -397.62,130.7 v -194.56 l 152.76,97.28 z m 208,0 v -194.56 l 152.76,97.28 z"
         id="path767"
         style="fill:#ffffff;fill-opacity:1;stroke-width:2" /><circle
         style="fill:none;stroke:#ffffff;stroke-width:48;stroke-dasharray:none;stroke-opacity:1"
         id="path1388-5"
         cx="1808"
         cy="768"
         r="330" /></g><g
       id="g1557"
       transform="matrix(0.7175141,0,0,0.71751415,359.66876,199.24593)"><path
         fill="#000000"
         d="m 1468.9773,645.57299 a 40,40 0 0 0 -40.66,1.32 l -146.74,93.46 v -60 a 39.82,39.82 0 0 0 -61.26,-33.44 l -176.36,112.32 a 39.58,39.58 0 0 0 0,66.84 l 176.36,112.34 a 39.82,39.82 0 0 0 61.26,-33.44 v -60 l 146.74,93.46 a 39.82,39.82 0 0 0 61.26,-33.46 v -224.64 a 39.68,39.68 0 0 0 -20.6,-34.76 z m -235.4,244.36 -152.74,-97.28 152.74,-97.28 z m 208,0 -152.74,-97.28 152.74,-97.28 z"
         id="path803"
         style="fill:#ffffff;fill-opacity:1;stroke-width:2" /><circle
         style="fill:none;stroke:#ffffff;stroke-width:48;stroke-dasharray:none;stroke-opacity:1"
         id="path1388-35"
         cx="1282.6667"
         cy="792.67297"
         r="330" /></g><g
       id="g1553"
       transform="matrix(0.7175141,0,0,0.71751415,222.68928,216.94914)"><path
         fill="#000000"
         d="m 969.57407,734.14001 -288.15998,-176.26 a 40,40 0 0 0 -60.82,33.86 v 352.52 a 40,40 0 0 0 60.82,33.86 l 288.15998,-176.26 a 39.64,39.64 0 0 0 0,-67.72 z m -300.97998,195.56 v -323.4 l 264.31998,161.7 z"
         id="path794"
         style="fill:#ffffff;fill-opacity:1;stroke-width:2" /><circle
         style="fill:none;stroke:#ffffff;stroke-width:48;stroke-dasharray:none;stroke-opacity:1"
         id="path1388-62"
         cx="760"
         cy="768"
         r="330" /></g><g
       id="g1549"
       transform="matrix(0.7175141,0,0,0.71751415,72.316382,216.94914)"><path
         fill="#000000"
         d="m 505.53348,728.62 a 40,40 0 0 0 -32.46,-16.62 h -24 v -32 a 40,40 0 0 0 -40,-40 h -136 l -53.31995,-40 a 40.24,40.24 0 0 0 -24,-8 H 89.073551 a 40,40 0 0 0 -40,40 v 288 a 24,24 0 0 0 24,24 H 431.27348 a 24,24 0 0 0 22.66,-16 l 56.98,-162.94 0.12,-0.34 a 40,40 0 0 0 -5.5,-36.1 z M 193.07353,640 l 53.33995,40 a 40.24,40.24 0 0 0 24,8 h 130.66 v 24 H 148.61353 a 40,40 0 0 0 -37.87999,27.16 L 97.073551,778.3 V 640 Z M 414.25348,896 H 106.85355 l 47.43998,-136 h 307.51995 z"
         id="path776"
         style="fill:#ffffff;fill-opacity:1;stroke-width:2" /><circle
         style="fill:none;stroke:#ffffff;stroke-width:48;stroke-dasharray:none;stroke-opacity:1"
         id="path1388-9"
         cx="256"
         cy="768"
         r="330" /></g><g
       id="g1565"
       transform="matrix(0.7175141,0,0,0.71751415,72.316382,361.57542)"><path
         fill="#000000"
         d="m 403.49998,1085.04 a 40,40 0 0 0 -40.6,1.06 L 136.00002,1228 v -124 a 24.000001,24.000001 0 0 0 -48.000002,0 v 352 a 24.000001,24.000001 0 0 0 48.000002,0 v -124 l 226.89996,142 a 40,40 0 0 0 61.1,-33.76 v -320.48 a 39.72,39.72 0 0 0 -20.5,-34.72 z m -27.5,340.42 L 143.40002,1280 375.99998,1134.54 Z"
         id="path812"
         style="fill:#ffffff;fill-opacity:1;stroke-width:2" /><circle
         style="fill:none;stroke:#ffffff;stroke-width:48;stroke-dasharray:none;stroke-opacity:1"
         id="path1388-1"
         cx="256"
         cy="1280.009"
         r="330" /></g><g
       id="g1569"
       transform="matrix(0.7175141,0,0,0.71751415,222.68928,361.57533)"><path
         fill="#000000"
         d="m 903.99998,1080.0091 h -80 a 40,40 0 0 0 -40,40 v 320 a 40,40 0 0 0 40,40 h 80 a 40,40 0 0 0 40,-40 v -320 a 40,40 0 0 0 -40,-40 z m -8,352 h -64 v -304 h 64 z m -200,-352 h -80 a 40,40 0 0 0 -40,40 v 320 a 40,40 0 0 0 40,40 h 80 a 40,40 0 0 0 40,-40 v -320 a 40,40 0 0 0 -40,-40 z m -8,352 h -64 v -304 h 64 z"
         id="path785"
         style="fill:#ffffff;fill-opacity:1;stroke-width:2" /><circle
         style="fill:none;stroke:#ffffff;stroke-width:48;stroke-dasharray:none;stroke-opacity:1"
         id="path1388-2"
         cx="760"
         cy="1280.0092"
         r="330" /></g></g><metadata
     id="metadata1027"><rdf:RDF><cc:Work
         rdf:about=""><cc:license
           rdf:resource="https://github.com/phosphor-icons/homepage/blob/master/LICENSE" /><dc:relation>https://github.com/phosphor-icons/homepage</dc:relation><dc:rights><cc:Agent><dc:title>MIT © Phosphor Icons</dc:title></cc:Agent></dc:rights></cc:Work></rdf:RDF></metadata></svg>
